<svg id="Layer_1" data-name="Layer 1" xmlns="http://www.w3.org/2000/svg" viewBox="0 0 500 500"><defs><style>.cls-1{fill:#a5a5a5;}.cls-2{fill:none;stroke:#000;stroke-linecap:round;stroke-linejoin:round;stroke-width:15px;}</style></defs><title>clip-2</title><path class="cls-1" d="M463.53,50a94.63,94.63,0,0,0-133.67,0L30.78,349.08a75.14,75.14,0,0,0,0,106.14c29.26,29.26,77.81,30.19,107.07.93L336.5,257.5,200,395.11c-7.46,7.45-8.39,18.61-.94,26.06a19.08,19.08,0,0,0,27,0l237.5-237.5A94.63,94.63,0,0,0,463.53,50Zm-27,106.68L366.3,227.47c18.7-21.73,17-55.49-3.61-76.06-21.52-21.52-57.46-22.45-79-.93L124.16,310a19.09,19.09,0,0,0,27,27L310.7,177.47c6.64-6.63,18.36-5.7,25,.93s7.57,18.36.93,25L110.85,429.16c-14.37,14.38-38.7,13.44-53.08-.93a36.91,36.91,0,0,1,0-52.15L356.85,77a56.34,56.34,0,1,1,79.68,79.68Z"/><path class="cls-2" d="M30.78,455.22a75.14,75.14,0,0,1,0-106.14L329.86,50A94.52,94.52,0,0,1,463.53,183.67L226,421.17a19.08,19.08,0,0,1-27,0c-7.45-7.45-6.52-18.61.94-26.06L436.53,156.68A56.34,56.34,0,1,0,356.85,77L57.77,376.08a36.91,36.91,0,0,0,0,52.15c14.38,14.37,38.71,15.31,53.08.93L336.62,203.39c6.64-6.63,5.7-18.36-.93-25s-18.35-7.56-25-.93L151.16,337a19.09,19.09,0,0,1-27-27L283.71,150.48c21.52-21.52,57.46-20.59,79,.93s22.44,57.46.93,79L137.85,456.15C108.59,485.41,60,484.48,30.78,455.22Z"/></svg>